# xmcd CD database file
#
# Track frame offsets:
#	150
#	26835
#	46410
#	62145
#
# Disc length: 1157 seconds
#
# Revision: 0
# Processed by: cddbd v1.5.1PL0 Copyright (c) Steve Scherf et al.
# Submitted via: CDex 1.51
#
DISCID=32048304
DTITLE=THUNDER - She's So Fine (EP)
DYEAR=1989
DGENRE=Hard Rock
TTITLE0=She's So Fine (Full Version)
TTITLE1=Girl's Going Out Of Her Head
TTITLE2=Another Shot Of Love (LIVE)
TTITLE3=She's So Fine (7" Version)
EXTD=YEAR: 1989
EXTT0=
EXTT1=
EXTT2=
EXTT3=
PLAYORDER=
